<svg width="123" height="107" viewBox="0 0 123 107" fill="none" xmlns="http://www.w3.org/2000/svg">
<circle cx="105" cy="66" r="4" fill="white"/>
<circle cx="83" cy="19" r="4" fill="white"/>
<circle cx="30" cy="4" r="4" fill="white"/>
<path fill-rule="evenodd" clip-rule="evenodd" d="M64.5 92C83.0015 92 96.5 79.0015 96.5 60.5C96.5 41.9985 82.5015 27 64 27C45.4985 27 32.5 43.4985 32.5 62C32.5 80.5015 45.9985 92 64.5 92ZM64.5 92C82.6816 92 99 77.5538 99 58.5C99 39.4462 83.5538 24 64.5 24C45.4462 24 30 39.4462 30 58.5C30 77.5538 45.4462 92 64.5 92Z" fill="white"/>
<path fill-rule="evenodd" clip-rule="evenodd" d="M98.6404 17.9032C92.1848 17.9303 84.6336 19.0327 79.1399 20.1592L79.1642 20.1882C84.9755 18.6174 92.0979 16.9306 98.6362 16.9032C105.149 16.8759 111.205 17.7652 114.854 19.9605C116.694 21.0672 117.974 22.539 118.335 24.4354C118.693 26.3219 118.118 28.5119 116.506 31.012C113.291 35.9982 106.795 42.8841 92 50.3067C105.517 42.0479 112.583 35.2515 115.665 30.4702C117.202 28.0866 117.645 26.1606 117.352 24.6221C117.062 23.0935 116.024 21.831 114.339 20.8174C110.938 18.7719 105.121 17.8761 98.6404 17.9032Z" fill="white"/>
<path fill-rule="evenodd" clip-rule="evenodd" d="M23.8679 73.2057C30.3165 72.9061 37.8145 71.4859 43.2557 70.1284L43.2302 70.1004C37.4904 71.9152 30.4456 73.9012 23.9143 74.2046C17.4081 74.5068 11.3206 73.874 7.58186 71.8348C5.697 70.8067 4.35531 69.3903 3.91528 67.5108C3.47757 65.6411 3.95986 63.4288 5.46488 60.8628C8.46634 55.7454 14.6654 48.5913 29.1343 40.5508C15.9779 49.3729 9.20562 56.4615 6.32746 61.3687C4.89266 63.815 4.53196 65.758 4.88895 67.2828C5.24363 68.7978 6.33438 70.0153 8.06069 70.9569C11.5443 72.8569 17.3941 73.5064 23.8679 73.2057Z" fill="white"/>
<path fill-rule="evenodd" clip-rule="evenodd" d="M111.257 82.9748C110.377 77.887 108.053 72.6221 104.605 68.3132L105.386 67.6884C108.939 72.1289 111.334 77.55 112.243 82.8044C113.15 88.0516 112.584 93.1899 110.135 97.0161C107.668 100.871 103.343 103.31 96.9373 103.23C90.5564 103.151 76 98 71.5 94C82.2757 100.103 90.8076 102.154 96.9497 102.23C103.067 102.306 107.04 99.9963 109.292 96.477C111.563 92.9295 112.138 88.0696 111.257 82.9748Z" fill="white"/>
<path fill-rule="evenodd" clip-rule="evenodd" d="M31.5 32C32.0667 33.9337 33.0548 35.9442 33.5 36.5L33.506 36.5C32.9501 35.8058 31.7879 34.5175 30.9975 32.4188C30.1981 30.2962 29.3604 27.6025 28.6963 24.6738C27.3738 18.841 26.7162 11.9745 28.5176 6.83567L29.4613 7.16649C27.7572 12.0278 28.3583 18.6608 29.6716 24.4526C30.3254 27.3361 30.7165 29.9196 31.5 32Z" fill="white"/>
<path d="M83 73.8907H77.1917V45.8232L66.9718 72.9085C66.7206 73.3806 66.3659 73.7384 65.9077 73.9821C65.4644 74.2257 64.984 74.3475 64.4667 74.3475C63.9643 74.3475 63.4913 74.2257 63.0479 73.9821C62.6193 73.7384 62.2794 73.3806 62.0282 72.9085L51.7639 54.3837V89.8385L46 87.1452V43.6708C46 42.9855 46.1921 42.3764 46.5764 41.8434C46.9754 41.3104 47.4927 40.9526 48.1282 40.7698C48.4386 40.6937 48.749 40.6709 49.0593 40.7013C49.3697 40.7165 49.6653 40.7851 49.9461 40.9069C50.2417 41.0135 50.5077 41.1734 50.7442 41.3866C50.9806 41.5845 51.1801 41.8282 51.3427 42.1175L64.4667 65.6219L77.1917 29.45C77.5317 28.8714 77.9972 28.4602 78.5884 28.2166C79.1943 27.9729 79.8224 27.9349 80.4727 28.1024C81.0935 28.2851 81.6034 28.643 82.0024 29.1759C82.4014 29.7089 82.601 30.318 82.601 31.0033L83 73.8907Z" fill="white"/>
</svg>
